M48
INCH,TZ
T1C0.031
T2C0.039
T3C0.040
T4C0.043
T5C0.047
T6C0.050
%
G90
G05
T1
X48228Y-36811
X48228Y-37811
X48228Y-38811
X48228Y-39811
X48228Y-40811
X48228Y-41811
X48228Y-42811
X48228Y-43811
X48228Y-44811
X48228Y-45811
X48228Y-46811
X48228Y-47811
X48228Y-48811
X48228Y-49811
X51228Y-36811
X51228Y-37811
X51228Y-38811
X51228Y-39811
X51228Y-40811
X51228Y-41811
X51228Y-42811
X51228Y-43811
X51228Y-44811
X51228Y-45811
X51228Y-46811
X51228Y-47811
X51228Y-48811
X51228Y-49811
T2
X44813Y-43043
X56820Y-39500
X57017Y-36941
X58789Y-39500
X58986Y-36941
X61333Y-36941
X61333Y-39500
X62333Y-36941
X62333Y-39500
T3
X48553Y-52279
X48553Y-53279
X49553Y-52279
X49553Y-53279
X50553Y-52279
X50553Y-53279
T4
X59183Y-42256
X59183Y-44027
X59183Y-45996
X59183Y-47767
X61742Y-42256
X61742Y-44027
X61742Y-45996
X61742Y-47767
T5
X44882Y-45654
X44882Y-46654
X45404Y-38712
X45404Y-39712
X54262Y-37712
X54262Y-38712
X54459Y-41452
X54459Y-42452
X54459Y-44996
X54459Y-45996
X57018Y-49917
X57018Y-50917
T6
X43313Y-43043
T0
M30
